<svg width="30" height="12" viewBox="0 0 30 12" fill="none" xmlns="http://www.w3.org/2000/svg">
<path d="M4.29736 11.2563C6.98535 11.2563 8.58203 9.1543 8.58203 5.59473C8.58203 4.25439 8.32568 3.12646 7.83496 2.25488C7.12451 0.899902 5.90137 0.16748 4.35596 0.16748C2.05615 0.16748 0.430176 1.71289 0.430176 3.88086C0.430176 5.91699 1.89502 7.39648 3.90918 7.39648C5.14697 7.39648 6.15039 6.81787 6.64844 5.81445H6.67041C6.67041 5.81445 6.69971 5.81445 6.70703 5.81445C6.72168 5.81445 6.77295 5.81445 6.77295 5.81445C6.77295 8.23145 5.85742 9.67432 4.31201 9.67432C3.40381 9.67432 2.70068 9.17627 2.45898 8.37793H0.57666C0.891602 10.1138 2.36377 11.2563 4.29736 11.2563ZM4.36328 5.89502C3.14746 5.89502 2.2832 5.03076 2.2832 3.82227C2.2832 2.64307 3.19141 1.74219 4.37061 1.74219C5.5498 1.74219 6.45801 2.65771 6.45801 3.85156C6.45801 5.03076 5.57178 5.89502 4.36328 5.89502ZM11.7349 9.87939C12.4307 9.87939 12.9068 9.38135 12.9068 8.72217C12.9068 8.05566 12.4307 7.56494 11.7349 7.56494C11.0464 7.56494 10.563 8.05566 10.563 8.72217C10.563 9.38135 11.0464 9.87939 11.7349 9.87939ZM11.7349 4.38623C12.4307 4.38623 12.9068 3.89551 12.9068 3.23633C12.9068 2.56982 12.4307 2.0791 11.7349 2.0791C11.0464 2.0791 10.563 2.56982 10.563 3.23633C10.563 3.89551 11.0464 4.38623 11.7349 4.38623ZM20.044 11H21.8531V9.02979H23.2813V7.43311H21.8531V0.431152H19.1871C17.3194 3.24365 15.8326 5.59473 14.8804 7.34521V9.02979H20.044V11ZM16.6309 7.36719C17.8614 5.19922 18.96 3.46338 19.9708 1.96924H20.0733V7.47705H16.6309V7.36719ZM27.4449 11H29.3346V0.431152H27.4523L24.691 2.36475V4.18115L27.3204 2.33545H27.4449V11Z" fill="black"/>
</svg>
